<?xml version="1.0" encoding="UTF-8"?>
<svg id="Capa_1" xmlns="http://www.w3.org/2000/svg" version="1.1" viewBox="0 0 180 180">
  <!-- Generator: Adobe Illustrator 29.4.0, SVG Export Plug-In . SVG Version: 2.1.0 Build 152)  -->
  <rect width="180" height="180" fill="#f7f7f7"/>
  <g>
    <path d="M120.0219,67.7257h20.6732c13.4862,0,22.4806,8.5072,22.4806,22.3862s-8.9944,22.3862-22.4806,22.3862h-20.6732v-44.7725ZM128.9764,102.0292h10.2499c6.7431,0,11.8587-4.2692,11.8587-11.9172s-5.1156-11.9172-11.8587-11.9172h-13.0743v1.7468l-1.3796-.6899c5.4192,0,6.9977,2.7486,6.9977,7.2982v18.0448s-2.7938-2.5655-2.7938-2.5655Z" fill="#f06000"/>
    <path d="M46.038,88.5068v23.9914h-19.151c-13.4862,0-22.4806-8.5072-22.4806-22.3862s8.9944-22.3862,22.4806-22.3862h16.3303v10.469h-14.8614c-6.7431,0-11.8587,4.2692-11.8587,11.9172s5.1156,11.9172,11.8587,11.9172h11.552v-1.7468l1.3796.6899c-5.4192,0-6.9977-2.7486-6.9977-7.2982v-5.1672h11.7483Z" fill="#f06000"/>
    <path d="M85.8461,79.8603c0-5.9987-5.0704-12.135-15.2315-12.135h-17.4979v44.7729h11.749v-34.3033h3.5465c6.267,0,8.9696,3.3906,8.9696,9.8674v24.4358h10.9187v-34.3033h3.636c6.267,0,8.9696,3.3906,8.9696,9.8674v24.4358h11.749v-26.2991c0-11.4454-5.8645-18.4739-18.1336-18.4739h-7.7635v9.7653h-3.7346l2.8227,2.3697Z" fill="#f06000"/>
    <path d="M163.1757,73.6734c0-3.4093,2.8121-6.1716,6.2214-6.1716,3.3844,0,6.1965,2.7623,6.1965,6.1716s-2.8121,6.1716-6.1965,6.1716c-3.4093,0-6.2214-2.7623-6.2214-6.1716ZM174.2249,73.6734c0-2.6876-2.165-4.8278-4.8278-4.8278-2.6876,0-4.8278,2.1401-4.8278,4.8278,0,2.6627,2.1401,4.8278,4.8278,4.8278,2.6627,0,4.8278-2.165,4.8278-4.8278ZM167.1823,70.4134h2.6876c1.294,0,2.1401.6968,2.1401,1.8664,0,.8212-.4479,1.4434-1.1945,1.6922v.0995c.224.0747.3484.2737.4977.6221l.8959,2.0904h-1.4931l-.8212-1.966c-.1244-.2737-.1493-.2986-.3733-.2986h-.9954v2.2646h-1.3438v-6.3707ZM169.7704,73.2504c.5226,0,.871-.3235.871-.7963,0-.4479-.3733-.7963-.9208-.7963h-1.1945v1.5927h1.2443Z" fill="#f06000"/>
  </g>
</svg>